<svg width="128" height="52" viewBox="0 0 128 52" fill="none" xmlns="http://www.w3.org/2000/svg">
<path d="M44.4438 26.1934L38.6659 17.7504L44.0967 9.62106H47.9263L42.2267 18.1536L42.2827 17.213L48.4078 26.1934H44.4438ZM34.4893 26.1934V9.62106H38.1285V26.1934H34.4893ZM37.6246 19.3181V16.1156H40.0992V19.3181H37.6246ZM50.9566 26.1934L47.6533 13.9433H51.035L53.2297 22.7221H53.0505L55.4244 13.9433H59.3659L61.695 22.7221H61.4486L63.7217 13.9433H66.9578L63.6881 26.1934H59.7354L57.2384 16.9554H57.4511L54.8981 26.1934H50.9566ZM71.623 26.4173C70.3689 26.4173 69.3909 26.0926 68.6892 25.4431C67.995 24.7862 67.6479 23.9315 67.6479 22.8789C67.6479 21.7218 68.0472 20.8186 68.846 20.1691C69.6522 19.5196 70.9511 19.1352 72.7427 19.0158L75.3182 18.803L75.6989 20.7738L73.101 20.9865C72.4143 21.0388 71.9178 21.1955 71.6118 21.4568C71.3132 21.7181 71.1639 22.0764 71.1639 22.5318C71.1639 22.9797 71.302 23.3268 71.5782 23.5731C71.8544 23.812 72.2575 23.9315 72.7875 23.9315C73.116 23.9315 73.4519 23.8755 73.7953 23.7635C74.1387 23.6441 74.4522 23.4425 74.7359 23.1588V18.6798C74.7359 18.12 74.6426 17.6795 74.4559 17.3585C74.2768 17.0375 73.9819 16.8099 73.5713 16.6755C73.1682 16.5336 72.627 16.4627 71.9477 16.4627C71.4774 16.4627 70.9437 16.5038 70.3465 16.5859C69.7493 16.6606 69.1782 16.7837 68.6332 16.9554V14.268C69.2304 14.0963 69.8836 13.9694 70.5928 13.8873C71.3094 13.7977 71.9738 13.7529 72.586 13.7529C73.8849 13.7529 74.9486 13.9134 75.7772 14.2344C76.6133 14.5554 77.2292 15.0929 77.6248 15.8469C78.0205 16.5934 78.2183 17.6123 78.2183 18.9038V26.1934H75.2846L75.0382 24.9728H74.8703C74.5045 25.473 74.0379 25.8388 73.4706 26.0702C72.9032 26.3016 72.2874 26.4173 71.623 26.4173ZM80.7846 26.1934V13.9433H83.7072L83.9759 15.5221H84.1551C84.4985 14.9175 84.9538 14.477 85.5212 14.2008C86.0885 13.9172 86.7118 13.7753 87.3912 13.7753C87.5778 13.7753 87.7569 13.7828 87.9286 13.7977C88.1003 13.8127 88.2534 13.8351 88.3877 13.8649V17.0898C88.2011 17.0525 87.9996 17.0301 87.7831 17.0226C87.574 17.0077 87.3725 17.0002 87.1784 17.0002C86.8275 17.0002 86.473 17.045 86.1146 17.1346C85.7563 17.2167 85.4241 17.3473 85.1181 17.5265C84.812 17.6982 84.5545 17.9109 84.3454 18.1648V26.1934H80.7846ZM90.0576 26.1934V13.9433H93.6296V26.1934H90.0576ZM91.838 12.1629C91.0915 12.1629 90.5353 11.9987 90.1695 11.6702C89.8112 11.3417 89.6321 10.8864 89.6321 10.3041C89.6321 9.70691 89.8112 9.24781 90.1695 8.92681C90.5353 8.59835 91.0915 8.43412 91.838 8.43412C92.5919 8.43412 93.1481 8.59835 93.5064 8.92681C93.8647 9.24781 94.0439 9.70691 94.0439 10.3041C94.0439 10.8864 93.8647 11.3417 93.5064 11.6702C93.1481 11.9987 92.5919 12.1629 91.838 12.1629Z" fill="white"/>
<path d="M2.48375 47.9927V41.4331H0.0685847V40.7424H5.69253V41.4331H3.27737V47.9927H2.48375ZM5.83957 47.9927V42.6774H6.49603L6.55971 43.3878H6.6087C6.79159 43.1363 7.02021 42.9469 7.29455 42.8195C7.57215 42.6889 7.86119 42.6235 8.16165 42.6235C8.2433 42.6235 8.31679 42.6268 8.3821 42.6333C8.45069 42.6399 8.51764 42.6497 8.58296 42.6627V43.3878C8.50784 43.3747 8.43273 43.3665 8.35761 43.3633C8.28576 43.36 8.20738 43.3584 8.12246 43.3584C7.94937 43.3584 7.76811 43.3861 7.57868 43.4417C7.39253 43.4939 7.21616 43.5772 7.0496 43.6915C6.88304 43.8025 6.74097 43.943 6.6234 44.1128V47.9927H5.83957ZM10.5254 48.0809C10.0257 48.0809 9.63214 47.9519 9.34474 47.6939C9.0606 47.4359 8.91853 47.0815 8.91853 46.6308C8.91853 46.1671 9.0704 45.8062 9.37413 45.5482C9.68113 45.2869 10.1727 45.1236 10.8487 45.0583L12.2743 44.9064L12.3478 45.4257L10.8977 45.5825C10.4764 45.6249 10.1727 45.7278 9.9865 45.8911C9.8036 46.0511 9.71216 46.2732 9.71216 46.5574C9.71216 46.8546 9.79707 47.0815 9.9669 47.2383C10.1367 47.3951 10.3898 47.4735 10.7262 47.4735C10.9581 47.4735 11.1916 47.4245 11.4268 47.3265C11.6619 47.2252 11.8726 47.057 12.0587 46.8219V44.4753C12.0587 44.1487 12.0081 43.8973 11.9069 43.7209C11.8056 43.5413 11.6538 43.4155 11.4513 43.3437C11.2488 43.2718 10.994 43.2359 10.687 43.2359C10.4878 43.2359 10.2608 43.2539 10.0061 43.2898C9.75461 43.3257 9.50314 43.3861 9.25166 43.471V42.8293C9.48028 42.7542 9.73175 42.697 10.0061 42.6578C10.2837 42.6154 10.545 42.5941 10.7899 42.5941C11.2406 42.5941 11.6162 42.6529 11.9167 42.7705C12.2204 42.8881 12.4474 43.0873 12.5976 43.3682C12.7511 43.6458 12.8279 44.0263 12.8279 44.5096V47.9927H12.1714L12.1126 47.4H12.0636C11.8905 47.6188 11.6685 47.787 11.3974 47.9046C11.1296 48.0221 10.8389 48.0809 10.5254 48.0809ZM16.0626 48.0858C15.6772 48.0858 15.3261 47.9993 15.0093 47.8262C14.6925 47.6498 14.4394 47.3689 14.25 46.9836C14.0638 46.5982 13.9708 46.0854 13.9708 45.4453C13.9708 44.8052 14.072 44.2745 14.2745 43.8532C14.4802 43.4319 14.7823 43.1167 15.1808 42.9077C15.5792 42.6987 16.0691 42.5941 16.6505 42.5941C16.8007 42.5941 16.9509 42.6007 17.1012 42.6137C17.2514 42.6268 17.3902 42.6431 17.5176 42.6627V40.0761H18.3014V47.9927H17.6351L17.5813 47.4196H17.5274C17.3706 47.6123 17.1665 47.7723 16.915 47.8997C16.6668 48.0238 16.3827 48.0858 16.0626 48.0858ZM16.239 47.4098C16.4774 47.4098 16.7109 47.3575 16.9395 47.253C17.1681 47.1485 17.3608 46.9819 17.5176 46.7533V43.329C17.4 43.2996 17.2628 43.2767 17.1061 43.2604C16.9493 43.2441 16.7942 43.2359 16.6407 43.2359C16.0234 43.2359 15.5564 43.4025 15.2396 43.7356C14.926 44.0687 14.7693 44.6158 14.7693 45.3767C14.7693 45.8993 14.8313 46.3091 14.9554 46.6063C15.0828 46.9003 15.2559 47.1077 15.4747 47.2285C15.6968 47.3493 15.9516 47.4098 16.239 47.4098ZM22.0192 48.0858C21.4673 48.0858 21.0035 47.9927 20.6279 47.8066C20.2556 47.6172 19.9747 47.3216 19.7853 46.9199C19.5959 46.5149 19.5012 45.9858 19.5012 45.3326C19.5012 44.7088 19.5877 44.1945 19.7608 43.7895C19.9372 43.3845 20.1854 43.084 20.5054 42.8881C20.8288 42.6921 21.2109 42.5941 21.6518 42.5941C22.0862 42.5941 22.4552 42.6938 22.7589 42.893C23.0659 43.0889 23.2995 43.391 23.4595 43.7993C23.6195 44.2042 23.6995 44.7219 23.6995 45.3522V45.5923H19.9274V45.0583H23.1215L22.95 45.1759C22.95 44.6794 22.8977 44.2843 22.7932 43.9903C22.692 43.6964 22.5434 43.4857 22.3474 43.3584C22.1547 43.2277 21.9196 43.1624 21.642 43.1624C21.3676 43.1624 21.1292 43.2261 20.9267 43.3535C20.7243 43.4808 20.5675 43.6915 20.4565 43.9854C20.3487 44.2794 20.2948 44.6762 20.2948 45.1759V45.4502C20.2948 45.9401 20.3601 46.332 20.4907 46.6259C20.6246 46.9166 20.8255 47.1273 21.0933 47.2579C21.3611 47.3853 21.7008 47.449 22.1123 47.449C22.3148 47.449 22.5238 47.431 22.7393 47.3951C22.9582 47.3559 23.19 47.302 23.435 47.2334V47.8752C23.1802 47.947 22.9369 47.9993 22.7051 48.0319C22.4764 48.0679 22.2478 48.0858 22.0192 48.0858ZM31.7513 47.9927L28.8952 44.2892L31.57 40.7424H32.442L29.6937 44.3773L29.7035 44.152L32.6478 47.9927H31.7513ZM27.3031 47.9927V40.7424H28.0967V47.9927H27.3031ZM27.9693 44.6321V43.9168H29.2626V44.6321H27.9693ZM34.1157 47.9927L32.5578 42.6774H33.3269L34.6546 47.3118H34.5762L35.9626 42.6774H36.8885L38.2748 47.3118H38.1867L39.5192 42.6774H40.2589L38.7108 47.9927H37.785L36.3741 43.3045H36.4622L35.0416 47.9927H34.1157ZM42.4257 48.0809C41.926 48.0809 41.5324 47.9519 41.245 47.6939C40.9609 47.4359 40.8188 47.0815 40.8188 46.6308C40.8188 46.1671 40.9707 45.8062 41.2744 45.5482C41.5814 45.2869 42.0729 45.1236 42.749 45.0583L44.1746 44.9064L44.2481 45.4257L42.798 45.5825C42.3767 45.6249 42.0729 45.7278 41.8868 45.8911C41.7039 46.0511 41.6125 46.2732 41.6125 46.5574C41.6125 46.8546 41.6974 47.0815 41.8672 47.2383C42.037 47.3951 42.2901 47.4735 42.6265 47.4735C42.8584 47.4735 43.0919 47.4245 43.3271 47.3265C43.5622 47.2252 43.7729 47.057 43.959 46.8219V44.4753C43.959 44.1487 43.9084 43.8973 43.8072 43.7209C43.7059 43.5413 43.5541 43.4155 43.3516 43.3437C43.1491 43.2718 42.8943 43.2359 42.5873 43.2359C42.3881 43.2359 42.1611 43.2539 41.9064 43.2898C41.6549 43.3257 41.4034 43.3861 41.152 43.471V42.8293C41.3806 42.7542 41.632 42.697 41.9064 42.6578C42.184 42.6154 42.4453 42.5941 42.6902 42.5941C43.1409 42.5941 43.5165 42.6529 43.817 42.7705C44.1207 42.8881 44.3477 43.0873 44.4979 43.3682C44.6514 43.6458 44.7282 44.0263 44.7282 44.5096V47.9927H44.0717L44.0129 47.4H43.9639C43.7908 47.6188 43.5687 47.787 43.2977 47.9046C43.0299 48.0221 42.7392 48.0809 42.4257 48.0809ZM46.1503 47.9927V42.6774H46.8067L46.8704 43.3878H46.9194C47.1023 43.1363 47.3309 42.9469 47.6053 42.8195C47.8829 42.6889 48.1719 42.6235 48.4724 42.6235C48.554 42.6235 48.6275 42.6268 48.6928 42.6333C48.7614 42.6399 48.8284 42.6497 48.8937 42.6627V43.3878C48.8186 43.3747 48.7434 43.3665 48.6683 43.3633C48.5965 43.36 48.5181 43.3584 48.4332 43.3584C48.2601 43.3584 48.0788 43.3861 47.8894 43.4417C47.7032 43.4939 47.5269 43.5772 47.3603 43.6915C47.1938 43.8025 47.0517 43.943 46.9341 44.1128V47.9927H46.1503ZM49.7192 47.9927V42.6774H50.503V47.9927H49.7192ZM50.1111 41.5213C49.9348 41.5213 49.7992 41.4788 49.7045 41.3939C49.6131 41.3057 49.5674 41.1849 49.5674 41.0314C49.5674 40.8746 49.6131 40.7522 49.7045 40.664C49.7992 40.5758 49.9348 40.5317 50.1111 40.5317C50.2875 40.5317 50.4214 40.5758 50.5128 40.664C50.6076 40.7522 50.6549 40.8746 50.6549 41.0314C50.6549 41.1849 50.6076 41.3057 50.5128 41.3939C50.4214 41.4788 50.2875 41.5213 50.1111 41.5213ZM51.982 49.5359C52.0963 49.2322 52.1861 48.948 52.2514 48.6835C52.3167 48.4189 52.3494 48.1528 52.3494 47.885L52.4866 48.0564H52.3788C52.209 48.0564 52.0718 48.0058 51.9673 47.9046C51.866 47.8033 51.8154 47.671 51.8154 47.5077C51.8154 47.3412 51.8644 47.2105 51.9624 47.1158C52.0604 47.0179 52.1943 46.9689 52.3641 46.9689C52.5437 46.9689 52.6842 47.0277 52.7854 47.1452C52.8866 47.2595 52.9373 47.4375 52.9373 47.6792C52.9373 48.0189 52.8915 48.3471 52.8001 48.6639C52.7087 48.9839 52.5911 49.2746 52.4474 49.5359H51.982ZM59.6939 48.0858C59.1942 48.0858 58.7419 48.0205 58.3369 47.8899C57.9352 47.756 57.5907 47.5437 57.3033 47.253C57.0159 46.9623 56.7954 46.5802 56.6419 46.1067C56.4884 45.6331 56.4117 45.0583 56.4117 44.3822C56.4117 43.507 56.5456 42.795 56.8134 42.2463C57.0812 41.6976 57.4649 41.2943 57.9646 41.0363C58.4676 40.7783 59.0701 40.6493 59.7723 40.6493C60.0532 40.6493 60.321 40.6672 60.5757 40.7032C60.8337 40.7391 61.0885 40.7913 61.34 40.8599V41.5556C61.0852 41.4772 60.8305 41.4217 60.5757 41.389C60.3243 41.3564 60.0663 41.34 59.8017 41.34C59.253 41.34 58.7876 41.438 58.4055 41.634C58.0267 41.8266 57.7393 42.1451 57.5433 42.5892C57.3474 43.0301 57.2494 43.6213 57.2494 44.3626C57.2494 45.1269 57.349 45.7311 57.5482 46.1752C57.7474 46.6161 58.0332 46.9297 58.4055 47.1158C58.7811 47.302 59.2302 47.3951 59.7527 47.3951C60.0205 47.3951 60.2802 47.3738 60.5316 47.3314C60.7831 47.2889 61.0526 47.2203 61.34 47.1256V47.8164C61.0983 47.9013 60.8386 47.9666 60.561 48.0123C60.2867 48.0613 59.9977 48.0858 59.6939 48.0858ZM62.3588 47.9927V40.0761H63.1426V47.9927H62.3588ZM66.6105 48.0858C66.1533 48.0858 65.7548 47.9911 65.4152 47.8017C65.0755 47.609 64.8126 47.3118 64.6264 46.9101C64.4403 46.5051 64.3472 45.9809 64.3472 45.3375C64.3472 44.7007 64.4387 44.1798 64.6215 43.7748C64.8077 43.3698 65.0706 43.0726 65.4103 42.8832C65.7499 42.6905 66.15 42.5941 66.6105 42.5941C67.071 42.5941 67.4711 42.6905 67.8107 42.8832C68.1504 43.0726 68.4117 43.3698 68.5946 43.7748C68.7807 44.1765 68.8738 44.6974 68.8738 45.3375C68.8738 45.9744 68.7791 46.4953 68.5897 46.9003C68.4035 47.3053 68.1406 47.6041 67.8009 47.7968C67.4645 47.9895 67.0677 48.0858 66.6105 48.0858ZM66.6105 47.449C66.911 47.449 67.1706 47.3836 67.3894 47.253C67.6082 47.1224 67.7764 46.9052 67.894 46.6014C68.0149 46.2944 68.0753 45.878 68.0753 45.3522C68.0753 44.8166 68.0149 44.3953 67.894 44.0883C67.7764 43.778 67.6066 43.5592 67.3845 43.4319C67.1657 43.3012 66.9077 43.2359 66.6105 43.2359C66.31 43.2359 66.0504 43.3012 65.8316 43.4319C65.6128 43.5592 65.4429 43.7764 65.3221 44.0834C65.2045 44.3871 65.1457 44.8019 65.1457 45.3277C65.1457 45.8601 65.2045 46.2814 65.3221 46.5916C65.4429 46.8986 65.6128 47.1191 65.8316 47.253C66.0504 47.3836 66.31 47.449 66.6105 47.449ZM71.9649 48.0858C71.4228 48.0858 71.0015 47.947 70.701 47.6694C70.4005 47.3885 70.2503 46.9411 70.2503 46.3271V42.6774L70.3777 40.7424H71.0341V46.1997C71.0341 46.6472 71.1256 46.9607 71.3085 47.1403C71.4946 47.32 71.7706 47.4098 72.1364 47.4098C72.2344 47.4098 72.3356 47.4032 72.4401 47.3902C72.5446 47.3738 72.6589 47.3526 72.783 47.3265V47.9878C72.6524 48.0205 72.5185 48.045 72.3813 48.0613C72.2442 48.0777 72.1054 48.0858 71.9649 48.0858ZM69.2509 43.3241V42.6774H72.7047V43.3241H69.2509ZM73.6205 47.9927V40.0761H74.4044V43.2702H74.4484C74.664 43.0448 74.9122 42.8766 75.1931 42.7656C75.4739 42.6513 75.7728 42.5941 76.0896 42.5941C76.4129 42.5941 76.7003 42.6562 76.9518 42.7803C77.2065 42.9011 77.4057 43.0987 77.5494 43.3731C77.6931 43.6474 77.765 44.0148 77.765 44.4753V47.9927H76.9861V44.5096C76.9861 44.0524 76.8832 43.7372 76.6774 43.5641C76.475 43.3878 76.2055 43.2996 75.8691 43.2996C75.7058 43.2996 75.536 43.3241 75.3596 43.3731C75.1833 43.4188 75.0118 43.4939 74.8453 43.5984C74.6787 43.6997 74.5317 43.8352 74.4044 44.005V47.9927H73.6205ZM81.428 48.0858C80.8761 48.0858 80.4123 47.9927 80.0367 47.8066C79.6644 47.6172 79.3835 47.3216 79.1941 46.9199C79.0047 46.5149 78.91 45.9858 78.91 45.3326C78.91 44.7088 78.9965 44.1945 79.1696 43.7895C79.346 43.3845 79.5942 43.084 79.9142 42.8881C80.2376 42.6921 80.6197 42.5941 81.0606 42.5941C81.495 42.5941 81.864 42.6938 82.1677 42.893C82.4747 43.0889 82.7083 43.391 82.8683 43.7993C83.0283 44.2042 83.1083 44.7219 83.1083 45.3522V45.5923H79.3362V45.0583H82.5303L82.3588 45.1759C82.3588 44.6794 82.3065 44.2843 82.202 43.9903C82.1008 43.6964 81.9522 43.4857 81.7562 43.3584C81.5635 43.2277 81.3284 43.1624 81.0508 43.1624C80.7765 43.1624 80.538 43.2261 80.3355 43.3535C80.1331 43.4808 79.9763 43.6915 79.8653 43.9854C79.7575 44.2794 79.7036 44.6762 79.7036 45.1759V45.4502C79.7036 45.9401 79.7689 46.332 79.8995 46.6259C80.0335 46.9166 80.2343 47.1273 80.5021 47.2579C80.7699 47.3853 81.1096 47.449 81.5211 47.449C81.7236 47.449 81.9326 47.431 82.1481 47.3951C82.367 47.3559 82.5988 47.302 82.8438 47.2334V47.8752C82.589 47.947 82.3457 47.9993 82.1139 48.0319C81.8852 48.0679 81.6566 48.0858 81.428 48.0858ZM88.6518 48.0858C88.1097 48.0858 87.6884 47.947 87.3879 47.6694C87.0874 47.3885 86.9372 46.9411 86.9372 46.3271V42.6774L87.0646 40.7424H87.721V46.1997C87.721 46.6472 87.8125 46.9607 87.9954 47.1403C88.1815 47.32 88.4575 47.4098 88.8233 47.4098C88.9213 47.4098 89.0225 47.4032 89.127 47.3902C89.2315 47.3738 89.3458 47.3526 89.4699 47.3265V47.9878C89.3393 48.0205 89.2054 48.045 89.0682 48.0613C88.9311 48.0777 88.7923 48.0858 88.6518 48.0858ZM85.9378 43.3241V42.6774H89.3916V43.3241H85.9378ZM90.3074 47.9927V40.0761H91.0912V43.2702H91.1353C91.3509 43.0448 91.5991 42.8766 91.88 42.7656C92.1608 42.6513 92.4597 42.5941 92.7765 42.5941C93.0998 42.5941 93.3872 42.6562 93.6387 42.7803C93.8934 42.9011 94.0926 43.0987 94.2363 43.3731C94.38 43.6474 94.4519 44.0148 94.4519 44.4753V47.9927H93.673V44.5096C93.673 44.0524 93.5701 43.7372 93.3643 43.5641C93.1619 43.3878 92.8924 43.2996 92.556 43.2996C92.3927 43.2996 92.2229 43.3241 92.0465 43.3731C91.8702 43.4188 91.6987 43.4939 91.5321 43.5984C91.3656 43.6997 91.2186 43.8352 91.0912 44.005V47.9927H90.3074ZM98.1149 48.0858C97.563 48.0858 97.0992 47.9927 96.7236 47.8066C96.3513 47.6172 96.0704 47.3216 95.881 46.9199C95.6916 46.5149 95.5969 45.9858 95.5969 45.3326C95.5969 44.7088 95.6834 44.1945 95.8565 43.7895C96.0329 43.3845 96.2811 43.084 96.6011 42.8881C96.9245 42.6921 97.3066 42.5941 97.7475 42.5941C98.1819 42.5941 98.5509 42.6938 98.8546 42.893C99.1616 43.0889 99.3952 43.391 99.5552 43.7993C99.7152 44.2042 99.7952 44.7219 99.7952 45.3522V45.5923H96.0231V45.0583H99.2172L99.0457 45.1759C99.0457 44.6794 98.9934 44.2843 98.8889 43.9903C98.7877 43.6964 98.6391 43.4857 98.4431 43.3584C98.2504 43.2277 98.0153 43.1624 97.7377 43.1624C97.4633 43.1624 97.2249 43.2261 97.0224 43.3535C96.82 43.4808 96.6632 43.6915 96.5522 43.9854C96.4444 44.2794 96.3905 44.6762 96.3905 45.1759V45.4502C96.3905 45.9401 96.4558 46.332 96.5864 46.6259C96.7203 46.9166 96.9212 47.1273 97.189 47.2579C97.4568 47.3853 97.7965 47.449 98.208 47.449C98.4105 47.449 98.6195 47.431 98.835 47.3951C99.0539 47.3559 99.2857 47.302 99.5307 47.2334V47.8752C99.2759 47.947 99.0326 47.9993 98.8007 48.0319C98.5721 48.0679 98.3435 48.0858 98.1149 48.0858ZM104.423 47.9927L102.865 42.6774H103.634L104.962 47.3118H104.883L106.27 42.6774H107.195L108.582 47.3118H108.494L109.826 42.6774H110.566L109.018 47.9927H108.092L106.681 43.3045H106.769L105.349 47.9927H104.423ZM113.562 48.0858C113.104 48.0858 112.706 47.9911 112.366 47.8017C112.027 47.609 111.764 47.3118 111.577 46.9101C111.391 46.5051 111.298 45.9809 111.298 45.3375C111.298 44.7007 111.39 44.1798 111.573 43.7748C111.759 43.3698 112.022 43.0726 112.361 42.8832C112.701 42.6905 113.101 42.5941 113.562 42.5941C114.022 42.5941 114.422 42.6905 114.762 42.8832C115.101 43.0726 115.363 43.3698 115.546 43.7748C115.732 44.1765 115.825 44.6974 115.825 45.3375C115.825 45.9744 115.73 46.4953 115.541 46.9003C115.355 47.3053 115.092 47.6041 114.752 47.7968C114.416 47.9895 114.019 48.0858 113.562 48.0858ZM113.562 47.449C113.862 47.449 114.122 47.3836 114.34 47.253C114.559 47.1224 114.727 46.9052 114.845 46.6014C114.966 46.2944 115.026 45.878 115.026 45.3522C115.026 44.8166 114.966 44.3953 114.845 44.0883C114.727 43.778 114.558 43.5592 114.336 43.4319C114.117 43.3012 113.859 43.2359 113.562 43.2359C113.261 43.2359 113.001 43.3012 112.783 43.4319C112.564 43.5592 112.394 43.7764 112.273 44.0834C112.156 44.3871 112.097 44.8019 112.097 45.3277C112.097 45.8601 112.156 46.2814 112.273 46.5916C112.394 46.8986 112.564 47.1191 112.783 47.253C113.001 47.3836 113.261 47.449 113.562 47.449ZM117.022 47.9927V42.6774H117.678L117.742 43.3878H117.791C117.974 43.1363 118.202 42.9469 118.477 42.8195C118.754 42.6889 119.043 42.6235 119.344 42.6235C119.426 42.6235 119.499 42.6268 119.564 42.6333C119.633 42.6399 119.7 42.6497 119.765 42.6627V43.3878C119.69 43.3747 119.615 43.3665 119.54 43.3633C119.468 43.36 119.39 43.3584 119.305 43.3584C119.132 43.3584 118.95 43.3861 118.761 43.4417C118.575 43.4939 118.398 43.5772 118.232 43.6915C118.065 43.8025 117.923 43.943 117.806 44.1128V47.9927H117.022ZM120.591 47.9927V40.0761H121.375V47.9927H120.591ZM124.671 48.0858C124.286 48.0858 123.934 47.9993 123.618 47.8262C123.301 47.6498 123.048 47.3689 122.858 46.9836C122.672 46.5982 122.579 46.0854 122.579 45.4453C122.579 44.8052 122.68 44.2745 122.883 43.8532C123.089 43.4319 123.391 43.1167 123.789 42.9077C124.188 42.6987 124.677 42.5941 125.259 42.5941C125.409 42.5941 125.559 42.6007 125.71 42.6137C125.86 42.6268 125.999 42.6431 126.126 42.6627V40.0761H126.91V47.9927H126.244L126.19 47.4196H126.136C125.979 47.6123 125.775 47.7723 125.523 47.8997C125.275 48.0238 124.991 48.0858 124.671 48.0858ZM124.847 47.4098C125.086 47.4098 125.319 47.3575 125.548 47.253C125.776 47.1485 125.969 46.9819 126.126 46.7533V43.329C126.008 43.2996 125.871 43.2767 125.714 43.2604C125.558 43.2441 125.403 43.2359 125.249 43.2359C124.632 43.2359 124.165 43.4025 123.848 43.7356C123.534 44.0687 123.378 44.6158 123.378 45.3767C123.378 45.8993 123.44 46.3091 123.564 46.6063C123.691 46.9003 123.864 47.1077 124.083 47.2285C124.305 47.3493 124.56 47.4098 124.847 47.4098Z" fill="white"/>
</svg>
